<svg xmlns="http://www.w3.org/2000/svg" width="200" height="200"><path fill="#30C6F5" stroke="#124191" stroke-width="2" stroke-linecap="round" stroke-linejoin="round" stroke-miterlimit="10" d="M122.973 27.764H82.607a8.764 8.764 0 0 0-8.764 8.763v95.583a8.764 8.764 0 0 0 8.764 8.764h40.365a8.763 8.763 0 0 0 8.763-8.764V36.527a8.762 8.762 0 0 0-8.762-8.763zm5.92 48.604v50.439c0 4.184-3.342 7.574-7.463 7.574H84.15c-4.121 0-7.463-3.391-7.463-7.574V38.703c0-4.182 3.342-7.572 7.463-7.572h10.984c1.752 0 3.311.977 4.267 2.466.005.008.009.016.015.023.797 1.228 2.012 1.999 3.374 1.999s2.579-.771 3.374-1.999l.015-.023c.956-1.489 2.515-2.466 4.267-2.466h10.984c4.121 0 7.463 3.391 7.463 7.572v37.665z"/><path fill="none" stroke="#124191" stroke-width="2" stroke-linecap="round" stroke-linejoin="round" stroke-miterlimit="10" d="M72.464 87.915c-3.341-3.703-9.5-8.211-16.147-1.563a60.037 60.037 0 0 1 10.552 29.939l.878 12.283a29.169 29.169 0 0 0 16.762 24.357l.818.383v16.742M115.763 170.057v-14.504s9.239-5.111 9.239-14.68"/><path fill="#FFF" stroke="#124191" stroke-width="2" stroke-linecap="round" stroke-linejoin="round" stroke-miterlimit="10" d="M135.865 76.512a5.196 5.196 0 0 0-7.348 0l-8.266 8.266a5.195 5.195 0 0 0 0 7.347 5.198 5.198 0 0 0 7.348 0l8.266-8.265a5.196 5.196 0 0 0 0-7.348z"/><path fill="none" stroke="#124191" stroke-width="2" stroke-linecap="round" stroke-linejoin="round" stroke-miterlimit="10" d="M63.042 99.086s5.547-3.191 0-12.834"/><circle fill="#124191" cx="102.79" cy="31.502" r="1.532"/><path fill="#124191" d="M123.988 86.365c.662.345 1.682 1.365 2.027 2.028l-1.05 1.05c-.271.27-.631.419-1.014.419s-.743-.149-1.013-.418c-.56-.56-.56-1.47-.001-2.029l1.051-1.05m-.236-1.766a.752.752 0 0 0-.553.209l-1.434 1.433a3.094 3.094 0 0 0 4.374 4.375l1.434-1.434c1.063-1.064-2.202-4.583-3.821-4.583z"/><path fill="#FFF" stroke="#124191" stroke-width="2" stroke-linecap="round" stroke-linejoin="round" stroke-miterlimit="10" d="M140.289 86.881a5.194 5.194 0 0 0-7.348 0l-8.265 8.264a5.195 5.195 0 1 0 7.347 7.347l8.266-8.265a5.195 5.195 0 0 0 0-7.346z"/><path fill="#FFF" stroke="#124191" stroke-width="2" stroke-linecap="round" stroke-linejoin="round" stroke-miterlimit="10" d="M132.863 101.639l-5.22 5.221a5.196 5.196 0 0 0 0 7.348 5.2 5.2 0 0 0 7.348 0l5.841-5.848a5.198 5.198 0 0 0 0-7.348s-1.998-2.298-5.384-1.873"/><path fill="#124191" d="M128.364 96.761c.663.345 1.683 1.365 2.028 2.028l-1.05 1.048c-.271.271-.631.42-1.014.42s-.742-.149-1.015-.422a1.417 1.417 0 0 1-.42-1.011c0-.383.149-.743.422-1.015l1.049-1.048m-.236-1.766a.752.752 0 0 0-.553.208l-1.433 1.434a3.09 3.09 0 0 0 0 4.373c.604.604 1.395.906 2.187.906s1.583-.302 2.188-.906l1.433-1.431c1.063-1.065-2.203-4.584-3.822-4.584zM131.55 108.405c.663.345 1.683 1.364 2.027 2.027l-1.05 1.05c-.271.271-.63.42-1.013.42s-.743-.149-1.015-.422a1.421 1.421 0 0 1-.42-1.012c0-.383.149-.743.42-1.015l1.051-1.048m-.237-1.766a.752.752 0 0 0-.553.209l-1.434 1.434a3.091 3.091 0 0 0 2.188 5.279c.792 0 1.583-.302 2.187-.906l1.434-1.432c1.063-1.065-2.202-4.584-3.822-4.584z"/><path fill="#00D2FF" d="M114.029 68.147H97.875c-.779 0-1.409.56-1.409 1.26 0 .701.63 1.262 1.409 1.262h16.154v-2.522z"/><path fill="#00E89E" d="M114.029 72.013H97.928c-.783 0-1.419.56-1.419 1.261 0 .7.636 1.261 1.419 1.261h16.102v-2.522z"/><path fill="#00AAF8" d="M114.031 78.512H98.62a7.171 7.171 0 0 1 0-14.341h15.411v2.521H98.62a4.65 4.65 0 0 0 0 9.298h15.411v2.522z"/></svg>