<svg xmlns="http://www.w3.org/2000/svg" width="200" height="200"><g fill="none" stroke="#124191" stroke-width="2" stroke-linecap="round" stroke-linejoin="round" stroke-miterlimit="10"><ellipse cx="98.822" cy="81.174" rx="21.787" ry="23.712"/><path d="M52.675 160.67v-16.475c0-15.934 12.917-27.747 28.858-27.747h34.581c15.938 0 28.854 11.808 28.854 27.747v16.475M130.09 143.406v17.647M67.552 161.053v-17.647"/><path d="M105.375 120.568l-1.14 7.416h-7.987l-1.143-7.416M103.421 132.518l2.166 22.41-5.06 6.57-5.422-6.57 1.958-22.41"/></g><path fill="#30C6F5" stroke="#124191" stroke-width="2" stroke-linecap="round" stroke-linejoin="round" stroke-miterlimit="10" d="M121.265 84.779c5.937-.49 7.351-3.895 7.351-3.895l.044-7.404s-5.229-7.752-29.65-7.902c-24.421-.148-29.981 7.461-29.981 7.461l-.045 7.536s1.186 3.576 7.488 3.824c0 0 .686 7.882 16.812 7.402 0 0 1.1.271 2.689-1.768 1.588-2.04 3.224-3.341 5.41-.021 0 0 1.302 1.926 2.771 1.961 16.014.361 17.111-7.194 17.111-7.194zm-44.75-.222s-1.024-4.05-.534-15.705m45.231 15.978s1.075-4.036.726-15.697"/><path fill="#FFF" d="M81.85 76.41a2.744 2.744 0 1 1 4.563-3.05 2.744 2.744 0 0 1-4.563 3.05"/><g><g fill="none" stroke="#30C6F5" stroke-width="2" stroke-linecap="round" stroke-linejoin="round" stroke-miterlimit="10" stroke-dasharray="1.1041,4.4163"><path d="M55.184 54.443v43.5c-13.072 4.852-21.271 11.828-21.271 19.585 0 14.644 29.25 26.519 65.329 26.519s65.328-11.875 65.328-26.519c0-7.314-7.292-13.937-19.086-18.734V54.443M55.184 53.142c-13.072 4.849-21.271 11.827-21.271 19.583M33.912 72.725v44.803"/><path d="M55.184 53.141c-13.072 4.851-21.271 11.828-21.271 19.585 0 14.645 29.25 26.52 65.329 26.52s65.328-11.875 65.328-26.52c0-7.314-7.292-13.938-19.086-18.734M164.569 117.528V72.726"/></g></g></svg>