<svg xmlns="http://www.w3.org/2000/svg" xmlns:xlink="http://www.w3.org/1999/xlink" width="200" height="200"><defs><path id="a" d="M140.755 28.119c-7.615-4.454-16.479-7.006-25.938-7.006-28.413 0-51.447 23.034-51.447 51.448 0 12.159 4.225 23.328 11.277 32.134l-5.303 12.813 14.266-4.043a51.228 51.228 0 0 0 31.207 10.543c28.414 0 51.449-23.033 51.449-51.447.001-18.956-10.251-35.517-25.511-44.442z"/></defs><clipPath id="b"><use xlink:href="#a" overflow="visible"/></clipPath><g clip-path="url(#b)" stroke="#124191" stroke-width="2" stroke-miterlimit="10"><g fill="#30C6F5" stroke-linecap="round" stroke-linejoin="round"><circle cx="100.541" cy="55.163" r="12.118"/><path d="M89.454 78.724c0-3.048 2.494-5.543 5.544-5.543h10.624c3.05 0 5.544 2.496 5.544 5.543 0 0 2.998 4.474 3.172 6.208.265 2.64-2.855 10.22-2.855 10.22l-.316 18.682c0 3.051.902 7.869 2.005 10.713l4.77 12.299c1.102 2.844 2.226 7.654 2.496 10.691l1.324 14.826c.271 3.037-1.689 5.938-4.358 6.445-2.667.51-5.153-1.551-5.526-4.576l-1.881-15.33c-.373-3.027-1.545-7.842-2.606-10.697l-2.146-5.777c-1.062-2.857-2.173-2.713-2.469.322l-.771 7.906c-.297 3.035-1.709 7.719-3.142 10.412l-6.343 11.924c-1.432 2.691-4.785 4.271-7.454 3.508-2.667-.762-3.792-3.645-2.5-6.408l5.462-11.668c1.293-2.764 2.546-7.51 2.785-10.549l.979-8.35c.239-3.039-2.337-8.021-2.337-11.068V78.724z"/><path d="M111.397 116.838H89.543l-2.907 6.682-3.965 12.423h37.267zM96.262 87.85l16.388 17.179a4.223 4.223 0 0 0 5.363.629l20.352-13.215a4.228 4.228 0 1 0-4.606-7.093L116.35 96.655l-13.967-14.642"/></g><path fill="none" stroke-linecap="round" stroke-linejoin="round" d="M116.678 53.215c0-10.17-10.05-15.241-15.546-15.241-9.905 0-17.965 7.135-17.965 17.355 0 17.268-6.627 20.792-6.627 20.792h9.315"/><path fill="#30C6F5" stroke-linecap="round" stroke-linejoin="round" d="M139.357 61.237l3.738 1.082-8.624 29.79-3.738-1.082z" stroke-width="2.0001"/><path fill="#BEC8D2" d="M86.19 84.229h-2.799a3.053 3.053 0 0 0-3.053 3.053v30.449h5.852"/></g><path fill="none" stroke="#124191" stroke-width="2" stroke-miterlimit="10" d="M35.957 130.738h50.521a5.637 5.637 0 0 1 4.932 2.91l11.623 21.043c2.074 3.754-.642 8.357-4.931 8.357H35.957"/><path fill="none" stroke="#124191" stroke-width="2" stroke-miterlimit="10" d="M93.11 136.727H75.294v12.816h24.895M35.957 149.543h10.466"/><circle fill="#30C6F5" cx="61.549" cy="140.652" r="2.483"/><path fill="#30C6F5" d="M59.611 144.26h3.921v5.283h-3.921z"/><path fill="none" stroke="#124191" stroke-width="2" stroke-miterlimit="10" d="M53.572 136.727v12.816h15.372M114.817 21.113c-28.413 0-51.447 23.034-51.447 51.448 0 12.159 4.225 23.328 11.277 32.134l-5.303 12.813 14.266-4.043a51.228 51.228 0 0 0 31.207 10.543c28.414 0 51.449-23.033 51.449-51.447"/><g fill="none" stroke="#124191" stroke-width="2" stroke-linecap="round" stroke-linejoin="round" stroke-miterlimit="10"><path d="M143.616 47.261c6.581.734 12.17 5.704 13.376 12.555 1.397 7.948-3.614 15.527-11.313 17.476"/><path d="M145.798 72.656c4.795-1.822 7.78-6.839 6.858-12.077-.858-4.881-4.841-8.422-9.529-8.945M142.616 56.2a6.307 6.307 0 1 1 3.321 11.127"/></g><path fill="none" stroke="#124191" stroke-width="2" stroke-linecap="round" stroke-linejoin="round" stroke-miterlimit="10" d="M35.957 170.217h130.31"/></svg>